<svg xmlns="http://www.w3.org/2000/svg" width="206" height="58" viewBox="0 0 206 58" role="img" aria-labelledby="title desc">
  <title id="title">Get the add-on for Firefox</title>
  <desc id="desc">Badge linking to Firefox Add-ons listing</desc>
  <defs>
    <linearGradient id="bg" x1="0" y1="0" x2="1" y2="1">
      <stop offset="0%" stop-color="#FF8F57"/>
      <stop offset="100%" stop-color="#FF5A2A"/>
    </linearGradient>
    <linearGradient id="inner" x1="0" y1="0" x2="0" y2="1">
      <stop offset="0%" stop-color="#FFFFFF" stop-opacity="0.14"/>
      <stop offset="100%" stop-color="#FFFFFF" stop-opacity="0"/>
    </linearGradient>
  </defs>
  <rect x="0.5" y="0.5" width="205" height="57" rx="8" fill="#FFFFFF" stroke="#D9DCE3"/>
  <rect x="2.5" y="2.5" width="201" height="53" rx="6.5" fill="url(#bg)"/>
  <rect x="2.5" y="2.5" width="201" height="26" rx="6.5" fill="url(#inner)"/>
  <g fill="#FFFFFF" font-family="Segoe UI, -apple-system, Arial, sans-serif" text-anchor="start">
    <text x="16" y="23" font-size="11" font-weight="600" letter-spacing="0.1">Get the add-on for</text>
    <text x="16" y="42" font-size="20" font-weight="700" letter-spacing="0.1">Firefox</text>
  </g>
  <g transform="translate(165 13)">
    <circle cx="14" cy="14" r="13.5" fill="#FFFFFF" opacity="0.20"/>
    <path d="M9 8c3-2 8-1 10 3 1 2 1 5-1 8-2 2-5 4-8 3-3 0-6-2-7-5 0-1 0-2 1-3 0 3 3 5 6 5 3 0 6-2 6-5 0-2-2-4-5-4-1 0-2 0-2 1z" fill="#FFFFFF"/>
  </g>
</svg>
